#Comment line ignore any data following # character 
#Hierarchical Translation and Rotation (.htr) file 
[Header]	
#Header keywords are followed by a single value 
FileType HTR		#Single word string
DataType HTRS		#Translation followed by rotation and scale data
FileVersion 1		#integer
NumSegments 64		#integer
NumFrames 3		#integer
DataFrameRate 30		#integer, data frame rate in this file
EulerRotationOrder ZYX
CalibrationUnits mm
RotationUnits Degrees
GlobalAxisofGravity Y
BoneLengthAxis Y
ScaleFactor 1.00
[SegmentNames&Hierarchy]
#CHILD	PARENT
Pinger_Root GLOBAL
Pelvis Pinger_Root
L_Hip Pelvis
R_Hip Pelvis
Rear_Leg01 Pelvis
Spine1 Pelvis
L_Leg01 L_Hip
L_Leg02 L_Leg01
L_Leg03 L_Leg02
L_Foot L_Leg03
L_Toe1_01 L_Foot
L_Toe2_01 L_Foot
L_Toe3_01 L_Foot
planeAlignerLeft L_Foot
L_Toe1_02 L_Toe1_01
L_Toe1_03 L_Toe1_02
L_Toe2_02 L_Toe2_01
L_Toe2_03 L_Toe2_02
L_Toe3_02 L_Toe3_01
L_Toe3_03 L_Toe3_02
planeLockWeightLeft planeAlignerLeft
R_Leg01 R_Hip
R_Leg02 R_Leg01
R_Leg03 R_Leg02
R_Foot R_Leg03
planeAlignerRight R_Foot
R_Toe1_01 R_Foot
R_Toe2_01 R_Foot
R_Toe3_01 R_Foot
planeLockWeightRight planeAlignerRight
R_Toe1_02 R_Toe1_01
R_Toe1_03 R_Toe1_02
R_Toe2_02 R_Toe2_01
R_Toe2_03 R_Toe2_02
R_Toe3_02 R_Toe3_01
R_Toe3_03 R_Toe3_02
Rear_Leg02 Rear_Leg01
Rear_Leg03 Rear_Leg02
Rear_Leg04 Rear_Leg03
Rear_Foot Rear_Leg04
planeAlignerCenter Rear_Foot
Rear_Toe1_01 Rear_Foot
Rear_Toe2_01 Rear_Foot
Rear_Toe3_01 Rear_Foot
planeLockWeightCenter planeAlignerCenter
Rear_Toe1_02 Rear_Toe1_01
Rear_Toe1_03 Rear_Toe1_02
Rear_Toe2_02 Rear_Toe2_01
Rear_Toe2_03 Rear_Toe2_02
Rear_Toe3_02 Rear_Toe3_01
Rear_Toe3_03 Rear_Toe3_02
Back_Bone Spine1
Head Spine1
Motor_Bone Back_Bone
Ping_Mechanism Back_Bone
BN_LookIK Head
bottomMouth Head
L_Mouth01 Head
L_mouthFront Head
mouthGun Head
R_Mouth01 Head
R_mouthFront Head
TopMouth Head
weapon_bone Head
[BasePosition]
#SegmentName Tx, Ty, Tz, Rx, Ry, Rz, BoneLength
Pinger_Root 0.000000 0.000000 0.000000 -90.000000 0.000000 0.000000 10.000000 
Pelvis 0.000000 0.000000 0.000000 0.000000 0.000000 0.000000 10.000000 
L_Hip 0.000000 0.000000 0.000000 0.000000 0.000000 0.000000 10.000000 
R_Hip 0.000000 0.000000 0.000000 0.000000 0.000000 0.000000 10.000000 
Rear_Leg01 0.000000 0.000000 0.000000 0.000000 0.000000 0.000000 10.000000 
Spine1 0.000000 0.000000 0.000000 0.000000 0.000000 0.000000 10.000000 
L_Leg01 0.000000 0.000000 0.000000 0.000000 0.000000 0.000000 10.000000 
L_Leg02 0.000000 0.000000 0.000000 0.000000 0.000000 0.000000 10.000000 
L_Leg03 0.000000 0.000000 0.000000 0.000000 0.000000 0.000000 10.000000 
L_Foot 0.000000 0.000000 0.000000 0.000000 0.000000 0.000000 10.000000 
L_Toe1_01 0.000000 0.000000 0.000000 0.000000 0.000000 0.000000 10.000000 
L_Toe2_01 0.000000 0.000000 0.000000 0.000000 0.000000 0.000000 10.000000 
L_Toe3_01 0.000000 0.000000 0.000000 0.000000 0.000000 0.000000 10.000000 
planeAlignerLeft 0.000000 0.000000 0.000000 0.000000 0.000000 0.000000 10.000000 
L_Toe1_02 0.000000 0.000000 0.000000 0.000000 0.000000 0.000000 10.000000 
L_Toe1_03 0.000000 0.000000 0.000000 0.000000 0.000000 0.000000 10.000000 
L_Toe2_02 0.000000 0.000000 0.000000 0.000000 0.000000 0.000000 10.000000 
L_Toe2_03 0.000000 0.000000 0.000000 0.000000 0.000000 0.000000 10.000000 
L_Toe3_02 0.000000 0.000000 0.000000 0.000000 0.000000 0.000000 10.000000 
L_Toe3_03 0.000000 0.000000 0.000000 0.000000 0.000000 0.000000 10.000000 
planeLockWeightLeft 0.000000 0.000000 0.000000 0.000000 0.000000 0.000000 10.000000 
R_Leg01 0.000000 0.000000 0.000000 0.000000 0.000000 0.000000 10.000000 
R_Leg02 0.000000 0.000000 0.000000 0.000000 0.000000 0.000000 10.000000 
R_Leg03 0.000000 0.000000 0.000000 0.000000 0.000000 0.000000 10.000000 
R_Foot 0.000000 0.000000 0.000000 0.000000 0.000000 0.000000 10.000000 
planeAlignerRight 0.000000 0.000000 0.000000 0.000000 0.000000 0.000000 10.000000 
R_Toe1_01 0.000000 0.000000 0.000000 0.000000 0.000000 0.000000 10.000000 
R_Toe2_01 0.000000 0.000000 0.000000 0.000000 0.000000 0.000000 10.000000 
R_Toe3_01 0.000000 0.000000 0.000000 0.000000 0.000000 0.000000 10.000000 
planeLockWeightRight 0.000000 0.000000 0.000000 0.000000 0.000000 0.000000 10.000000 
R_Toe1_02 0.000000 0.000000 0.000000 0.000000 0.000000 0.000000 10.000000 
R_Toe1_03 0.000000 0.000000 0.000000 0.000000 0.000000 0.000000 10.000000 
R_Toe2_02 0.000000 0.000000 0.000000 0.000000 0.000000 0.000000 10.000000 
R_Toe2_03 0.000000 0.000000 0.000000 0.000000 0.000000 0.000000 10.000000 
R_Toe3_02 0.000000 0.000000 0.000000 0.000000 0.000000 0.000000 10.000000 
R_Toe3_03 0.000000 0.000000 0.000000 0.000000 0.000000 0.000000 10.000000 
Rear_Leg02 0.000000 0.000000 0.000000 0.000000 0.000000 0.000000 10.000000 
Rear_Leg03 0.000000 0.000000 0.000000 0.000000 0.000000 0.000000 10.000000 
Rear_Leg04 0.000000 0.000000 0.000000 0.000000 0.000000 0.000000 10.000000 
Rear_Foot 0.000000 0.000000 0.000000 0.000000 0.000000 0.000000 10.000000 
planeAlignerCenter 0.000000 0.000000 0.000000 0.000000 0.000000 0.000000 10.000000 
Rear_Toe1_01 0.000000 0.000000 0.000000 0.000000 0.000000 0.000000 10.000000 
Rear_Toe2_01 0.000000 0.000000 0.000000 0.000000 0.000000 0.000000 10.000000 
Rear_Toe3_01 0.000000 0.000000 0.000000 0.000000 0.000000 0.000000 10.000000 
planeLockWeightCenter 0.000000 0.000000 0.000000 0.000000 0.000000 0.000000 10.000000 
Rear_Toe1_02 0.000000 0.000000 0.000000 0.000000 0.000000 0.000000 10.000000 
Rear_Toe1_03 0.000000 0.000000 0.000000 0.000000 0.000000 0.000000 10.000000 
Rear_Toe2_02 0.000000 0.000000 0.000000 0.000000 0.000000 0.000000 10.000000 
Rear_Toe2_03 0.000000 0.000000 0.000000 0.000000 0.000000 0.000000 10.000000 
Rear_Toe3_02 0.000000 0.000000 0.000000 0.000000 0.000000 0.000000 10.000000 
Rear_Toe3_03 0.000000 0.000000 0.000000 0.000000 0.000000 0.000000 10.000000 
Back_Bone 0.000000 0.000000 0.000000 0.000000 0.000000 0.000000 10.000000 
Head 0.000000 0.000000 0.000000 0.000000 0.000000 0.000000 10.000000 
Motor_Bone 0.000000 0.000000 0.000000 0.000000 0.000000 0.000000 10.000000 
Ping_Mechanism 0.000000 0.000000 0.000000 0.000000 0.000000 0.000000 10.000000 
BN_LookIK 0.000000 0.000000 0.000000 0.000000 0.000000 0.000000 10.000000 
bottomMouth 0.000000 0.000000 0.000000 0.000000 0.000000 0.000000 10.000000 
L_Mouth01 0.000000 0.000000 0.000000 0.000000 0.000000 0.000000 10.000000 
L_mouthFront 0.000000 0.000000 0.000000 0.000000 0.000000 0.000000 10.000000 
mouthGun 0.000000 0.000000 0.000000 0.000000 0.000000 0.000000 10.000000 
R_Mouth01 0.000000 0.000000 0.000000 0.000000 0.000000 0.000000 10.000000 
R_mouthFront 0.000000 0.000000 0.000000 0.000000 0.000000 0.000000 10.000000 
TopMouth 0.000000 0.000000 0.000000 0.000000 0.000000 0.000000 10.000000 
weapon_bone 0.000000 0.000000 0.000000 0.000000 0.000000 0.000000 10.000000 
#Beginning of Data. Separated by tabs
#Fr	Tx	Ty	Tz	Rx	Ry	Rz	SF
[Pinger_Root]
32 0.000000 0.000000 0.000000 -0.000075 -0.000000 -0.000020 0.000000
33 0.000000 0.000000 0.000000 -0.000075 -0.000000 -0.000020 0.000000
34 0.000000 0.000000 0.000000 -0.000075 -0.000000 -0.000020 0.000000
[Pelvis]
32 0.194168 1162.568237 3615.284912 -89.987091 -76.145592 89.989464 3797.611084
33 0.224331 1162.568237 3612.421631 -89.987137 -76.145607 89.989502 3794.885254
34 0.249178 1162.568237 3597.485352 -89.987137 -76.145607 89.989502 3780.670166
[L_Hip]
32 5.766392 125.831482 872.656799 -121.855164 -74.309326 30.031721 881.701050
33 5.766392 125.831482 872.656799 -121.855156 -74.309319 30.031721 881.701050
34 5.766392 125.831482 872.656799 -121.855164 -74.309326 30.031721 881.701050
[R_Hip]
32 5.765438 125.836372 -872.654907 -62.006908 72.295959 26.002941 881.699829
33 5.765438 125.836372 -872.654907 -62.006939 72.295982 26.002962 881.699829
34 5.765438 125.836372 -872.654907 -62.006908 72.295975 26.002958 881.699829
[Rear_Leg01]
32 -192.298416 -925.602966 -0.001907 176.356354 -1.728945 -130.673096 945.367432
33 -192.298416 -925.602966 -0.001907 176.354904 -1.729120 -130.663239 945.367432
34 -192.298416 -925.602966 -0.001907 176.353439 -1.729293 -130.653397 945.367432
[Spine1]
32 290.604584 5.007505 0.000477 0.000023 1.190863 9.414508 290.647736
33 290.604584 5.007505 0.000477 0.000091 1.177999 9.414498 290.647736
34 290.604584 5.007505 0.000477 0.000160 1.165136 9.414489 290.647736
[L_Leg01]
32 761.932007 -0.002384 -0.069261 67.494774 -45.907646 -67.673347 761.932068
33 761.932007 -0.002384 -0.069261 67.433449 -45.991665 -67.578026 761.932068
34 761.932007 -0.002384 -0.069261 67.109299 -46.451279 -67.087952 761.932068
[L_Leg02]
32 1441.140503 -0.000954 -0.000715 4.850107 0.838683 -121.823021 1441.140503
33 1441.140503 -0.000954 -0.000715 4.870738 0.846338 -122.025826 1441.140503
34 1441.140503 -0.000954 -0.000715 4.977841 0.897733 -123.114899 1441.140503
[L_Leg03]
32 1686.963989 -0.000715 -0.000954 -0.083792 0.048043 133.003601 1686.963989
33 1686.963989 -0.000715 -0.000954 -0.083801 0.048027 132.982040 1686.963989
34 1686.963989 -0.000715 -0.000954 -0.083686 0.048228 133.256958 1686.963989
[L_Foot]
32 3041.570068 -30.715107 11.297464 1.924133 24.627184 44.747936 3041.746094
33 3041.570068 -30.715107 11.297464 1.924340 24.631210 44.729271 3041.746094
34 3041.570068 -30.715107 11.297464 1.909998 24.583635 44.972523 3041.746094
[L_Toe1_01]
32 -188.216690 -224.732346 -21.137953 94.536530 -11.874324 -178.539001 293.899567
33 -188.216690 -224.732346 -21.137953 94.536530 -11.874324 -178.539001 293.899567
34 -188.216690 -224.732346 -21.137953 94.536530 -11.874326 -178.539001 293.899567
[L_Toe2_01]
32 200.746536 -219.926590 148.838394 -89.347961 -33.860943 -48.508659 332.896027
33 200.746536 -219.926590 148.838394 -89.348602 -33.861069 -48.507996 332.896027
34 200.746536 -219.926590 148.838394 -89.349228 -33.861183 -48.507347 332.896027
[L_Toe3_01]
32 188.832520 -219.859131 -191.078659 -97.068832 10.782291 -57.856510 347.140900
33 188.832520 -219.859131 -191.078659 -97.068542 10.782188 -57.855801 347.140900
34 188.832520 -219.859131 -191.078659 -97.068230 10.782083 -57.855072 347.140900
[planeAlignerLeft]
32 0.812531 -811.448792 -0.314951 0.000000 -90.000000 -90.001900 811.449280
33 0.812531 -811.448792 -0.314951 0.000000 -90.000000 -90.001900 811.449280
34 0.812531 -811.448792 -0.314951 0.000000 -90.000000 -90.001900 811.449280
[L_Toe1_02]
32 413.761139 0.000477 0.000000 0.000203 -25.410625 -0.000182 413.761139
33 413.761139 0.000477 0.000000 0.000203 -25.410625 -0.000182 413.761139
34 413.761139 0.000477 0.000000 0.000203 -25.410625 -0.000182 413.761139
[L_Toe1_03]
32 464.317322 0.000358 -0.000089 0.004342 58.635971 0.004342 464.317322
33 464.317322 0.000358 -0.000089 0.004342 58.635971 0.004342 464.317322
34 464.317322 0.000358 -0.000089 0.004342 58.635971 0.004342 464.317322
[L_Toe2_02]
32 342.235809 -0.000477 0.000238 0.001191 -70.156403 0.001191 342.235809
33 342.235809 -0.000477 0.000238 0.001191 -70.156387 0.001191 342.235809
34 342.235809 -0.000477 0.000238 0.001191 -70.156403 0.001191 342.235809
[L_Toe2_03]
32 420.210846 -0.000715 0.000000 0.013353 79.915703 0.013353 420.210846
33 420.210846 -0.000715 0.000000 0.013353 79.915703 0.013353 420.210846
34 420.210846 -0.000715 0.000000 0.013353 79.915703 0.013353 420.210846
[L_Toe3_02]
32 329.270111 0.000954 0.000000 0.001176 -83.130447 0.001176 329.270111
33 329.270111 0.000954 0.000000 0.001176 -83.130447 0.001176 329.270111
34 329.270111 0.000954 0.000000 0.001176 -83.130508 0.001176 329.270111
[L_Toe3_03]
32 439.137451 -0.001907 0.000954 179.990875 65.540901 179.998047 439.137451
33 439.137451 -0.001907 0.000954 179.990875 65.540901 179.998047 439.137451
34 439.137451 -0.001907 0.000954 179.990875 65.540901 179.998047 439.137451
[planeLockWeightLeft]
32 -0.000954 0.000238 -0.000305 -0.011826 -0.004376 0.005620 0.001029
33 -0.000954 0.000238 -0.000305 -0.011826 -0.004376 0.005620 0.001029
34 -0.000954 0.000238 -0.000305 -0.011826 -0.004376 0.005620 0.001029
[R_Leg01]
32 761.455627 -0.001907 -0.000358 99.887482 -32.953243 75.283035 761.455688
33 761.455627 -0.001907 -0.000358 99.898666 -33.041191 75.245987 761.455688
34 761.455627 -0.001907 -0.000358 99.971298 -33.490063 75.020699 761.455688
[R_Leg02]
32 1441.140625 0.000000 -0.000238 -1.211069 -0.580443 -140.416748 1441.140625
33 1441.140625 0.000000 -0.000238 -1.211561 -0.587541 -140.647858 1441.140625
34 1441.140625 0.000000 -0.000238 -1.228969 -0.607587 -141.832382 1441.140625
[R_Leg03]
32 1686.963989 0.000954 0.001431 0.121052 -0.075977 142.995255 1686.963989
33 1686.963989 0.000954 0.001431 0.121068 -0.075952 142.971802 1686.963989
34 1686.963989 0.000954 0.001431 0.120881 -0.076249 143.253311 1686.963989
[R_Foot]
32 3041.560059 -30.531288 -11.204481 -14.936565 -25.259983 56.389935 3041.734131
33 3041.560059 -30.531288 -11.204481 -14.916624 -25.257662 56.463535 3041.734131
34 3041.560059 -30.531288 -11.204481 -14.814773 -25.241693 56.853096 3041.734131
[planeAlignerRight]
32 -0.635147 -812.270569 -0.364304 0.000000 -89.960434 -90.005180 812.270874
33 -0.635147 -812.270569 -0.364304 0.000000 -89.960434 -90.005180 812.270874
34 -0.635147 -812.270569 -0.364304 0.000000 -89.960434 -90.005180 812.270874
[R_Toe1_01]
32 -188.383347 -224.864899 21.052242 58.204590 26.473932 -166.996567 294.101532
33 -188.383347 -224.864899 21.052242 58.204613 26.473980 -166.996536 294.101532
34 -188.383347 -224.864899 21.052242 58.204632 26.474024 -166.996506 294.101532
[R_Toe2_01]
32 200.637817 -220.002121 -148.787384 -55.994591 39.712746 -29.524965 332.857574
33 200.637817 -220.002121 -148.787384 -55.994591 39.712746 -29.524965 332.857574
34 200.637817 -220.002121 -148.787384 -55.994591 39.712746 -29.524965 332.857574
[R_Toe3_01]
32 188.606735 -220.092957 191.126343 -53.843761 11.159045 -73.288406 347.192566
33 188.606735 -220.092957 191.126343 -53.843758 11.159074 -73.288361 347.192566
34 188.606735 -220.092957 191.126343 -53.843758 11.159101 -73.288307 347.192566
[planeLockWeightRight]
32 -0.000477 0.000000 0.000000 -0.011823 -0.004379 -0.000027 0.000477
33 -0.000477 0.000000 0.000000 -0.011823 -0.004379 -0.000027 0.000477
34 -0.000477 0.000000 0.000000 -0.011823 -0.004379 -0.000027 0.000477
[R_Toe1_02]
32 413.762085 0.000477 -0.000119 0.000006 -25.434675 -0.000005 413.762085
33 413.762085 0.000477 -0.000119 0.000006 -25.434675 -0.000005 413.762085
34 413.762085 0.000477 -0.000119 0.000006 -25.434675 -0.000005 413.762085
[R_Toe1_03]
32 464.317810 0.000000 0.001088 0.003184 46.741306 0.003184 464.317810
33 464.317810 0.000000 0.001088 0.003184 46.741261 0.003184 464.317810
34 464.317810 0.000000 0.001088 0.003184 46.741199 0.003184 464.317810
[R_Toe2_02]
32 342.234741 -0.000954 0.000238 0.001235 -53.660015 0.001235 342.234741
33 342.234741 -0.000954 0.000238 0.001235 -53.660015 0.001235 342.234741
34 342.234741 -0.000954 0.000238 0.001235 -53.660015 0.001235 342.234741
[R_Toe2_03]
32 420.210846 0.000715 -0.000268 -0.003602 51.671577 0.000100 420.210846
33 420.210846 0.000715 -0.000268 -0.003602 51.671577 0.000100 420.210846
34 420.210846 0.000715 -0.000268 -0.003602 51.671577 0.000100 420.210846
[R_Toe3_02]
32 329.270355 -0.000477 -0.000954 -0.002373 -66.445053 -0.002373 329.270355
33 329.270355 -0.000477 -0.000954 -0.002373 -66.445053 -0.002373 329.270355
34 329.270355 -0.000477 -0.000954 -0.002373 -66.445053 -0.002373 329.270355
[R_Toe3_03]
32 439.137939 0.000238 0.001431 0.005869 66.928558 0.005869 439.137939
33 439.137939 0.000238 0.001431 0.005869 66.928574 0.005869 439.137939
34 439.137939 0.000238 0.001431 0.005869 66.928574 0.005869 439.137939
[Rear_Leg02]
32 1162.777710 -0.029802 0.005960 -2.765805 7.743757 -89.377579 1162.777710
33 1162.777710 -0.029802 0.005960 -2.779461 7.734435 -89.475510 1162.777710
34 1162.777710 -0.029802 0.005960 -2.847347 7.715673 -89.961899 1162.777710
[Rear_Leg03]
32 607.192505 -0.013351 -0.073195 0.010514 -0.005061 67.769485 607.192505
33 607.192505 -0.013351 -0.073195 0.010514 -0.005060 67.754601 607.192505
34 607.192505 -0.013351 -0.073195 0.010510 -0.005068 67.841011 607.192505
[Rear_Leg04]
32 995.874512 -0.020504 -0.011921 -0.039867 -0.019484 65.270561 995.874573
33 995.874512 -0.020504 -0.011921 -0.039880 -0.019457 65.346916 995.874573
34 995.874512 -0.020504 -0.011921 -0.039944 -0.019326 65.723335 995.874573
[Rear_Foot]
32 3096.176270 -0.067472 -0.041425 92.745445 82.954018 -79.969833 3096.176270
33 3096.176270 -0.067472 -0.041425 92.753998 82.954140 -79.961205 3096.176270
34 3096.176270 -0.067472 -0.041425 92.762497 82.954102 -79.952423 3096.176270
[planeAlignerCenter]
32 0.350077 0.966311 -838.790894 0.000009 0.000003 -179.999985 838.791565
33 0.350077 0.966311 -838.790894 0.000009 0.000003 -179.999985 838.791565
34 0.350077 0.966311 -838.790894 0.000009 0.000003 -179.999985 838.791565
[Rear_Toe1_01]
32 0.653352 83.966492 -371.173737 5.375451 30.464645 103.589897 380.553192
33 0.653352 83.966492 -371.173737 5.375301 30.464745 103.589317 380.553192
34 0.653352 83.966492 -371.173737 5.375155 30.464840 103.588737 380.553192
[Rear_Toe2_01]
32 178.200760 -294.826019 -362.060547 -8.740233 22.952549 -73.382332 499.765686
33 178.200760 -294.826019 -362.060547 -8.740205 22.952599 -73.381844 499.765686
34 178.200760 -294.826019 -362.060547 -8.740175 22.952642 -73.381355 499.765686
[Rear_Toe3_01]
32 -153.359680 -308.780914 -362.060852 3.774263 19.496037 -119.570114 499.952881
33 -153.359680 -308.780914 -362.060852 3.774316 19.496006 -119.570045 499.952881
34 -153.359680 -308.780914 -362.060852 3.774371 19.495979 -119.569977 499.952881
[planeLockWeightCenter]
32 -0.000062 0.000238 0.000000 -0.011814 -0.004373 -0.000015 0.000246
33 -0.000062 0.000238 0.000000 -0.011814 -0.004373 -0.000015 0.000246
34 -0.000062 0.000238 0.000000 -0.011814 -0.004373 -0.000015 0.000246
[Rear_Toe1_02]
32 379.707825 0.194073 0.000477 -0.000339 -32.991985 0.006989 379.707855
33 379.707825 0.194073 0.000477 -0.000339 -32.992889 0.006989 379.707855
34 379.707825 0.194073 0.000477 -0.000339 -32.993790 0.006989 379.707855
[Rear_Toe1_03]
32 500.129700 0.165701 0.000119 -0.004070 60.573425 -0.000455 500.129761
33 500.129700 0.165701 0.000119 -0.004071 60.573582 -0.000455 500.129761
34 500.129700 0.165701 0.000119 -0.004071 60.573753 -0.000455 500.129761
[Rear_Toe2_02]
32 340.494507 0.000238 -0.000954 0.001179 -79.094398 0.001179 340.494507
33 340.494507 0.000238 -0.000954 0.001179 -79.094398 0.001179 340.494507
34 340.494507 0.000238 -0.000954 0.001179 -79.094414 0.001179 340.494507
[Rear_Toe2_03]
32 433.103577 0.000000 0.000238 0.031673 85.752869 0.031673 433.103546
33 433.103577 0.000000 0.000238 0.031673 85.752869 0.031673 433.103546
34 433.103577 0.000000 0.000238 0.031673 85.752777 0.031673 433.103546
[Rear_Toe3_02]
32 340.494141 -0.000358 -0.000477 -0.002471 -50.096046 -0.002471 340.494171
33 340.494141 -0.000358 -0.000477 -0.002471 -50.096031 -0.002471 340.494171
34 340.494141 -0.000358 -0.000477 -0.002471 -50.096046 -0.002471 340.494171
[Rear_Toe3_03]
32 433.103577 0.001431 -0.000238 0.000412 44.443127 -0.003381 433.103546
33 433.103577 0.001431 -0.000238 0.000412 44.443195 -0.003381 433.103546
34 433.103577 0.001431 -0.000238 0.000412 44.443237 -0.003381 433.103546
[Back_Bone]
32 1312.175781 -701.934692 0.000954 0.039864 0.000824 -85.618271 1488.125488
33 1312.175781 -701.934692 0.000954 0.039698 0.000831 -85.619164 1488.125488
34 1312.175781 -701.934692 0.000954 0.039531 0.000837 -85.620049 1488.125488
[Head]
32 1406.159424 809.709290 0.001431 -0.050571 11.381069 42.527111 1622.625488
33 1406.159424 809.709290 0.001431 -0.050571 11.381069 42.527111 1622.625488
34 1406.159424 809.709290 0.001431 -0.050571 11.381069 42.527111 1622.625488
[Motor_Bone]
32 1158.364380 -417.834747 0.000477 -0.000105 0.000046 -105.985291 1231.419434
33 1158.364380 -417.834747 0.000477 -0.000105 0.000046 -105.985291 1231.419434
34 1158.364380 -417.834747 0.000477 -0.000105 0.000046 -105.985291 1231.419434
[Ping_Mechanism]
32 1281.222168 -456.982513 -0.384145 0.000103 -0.000053 82.120995 1360.280640
33 1281.222168 -456.982635 -0.379599 0.000103 -0.000053 82.120995 1360.280762
34 1281.222168 -456.982727 -0.375054 0.000103 -0.000053 82.120995 1360.280762
[BN_LookIK]
32 193.241119 1380.371704 -0.002861 0.000000 89.965736 -31.038179 1393.832153
33 193.241119 1380.371704 -0.002861 0.000000 89.965736 -31.038179 1393.832153
34 193.241119 1380.371704 -0.002861 0.000000 89.965736 -31.038179 1393.832153
[bottomMouth]
32 -435.092926 615.759399 -0.000954 -0.000022 0.000016 73.527184 753.966492
33 -435.092926 615.759399 -0.000954 -0.000022 0.000016 73.527184 753.966492
34 -435.092926 615.759399 -0.000954 -0.000022 0.000016 73.527184 753.966492
[L_Mouth01]
32 554.440979 7.658243 838.222046 150.204178 23.759130 109.605339 1005.027161
33 554.440979 7.658243 838.222046 150.204178 23.759130 109.605339 1005.027161
34 554.440979 7.658243 838.222046 150.204178 23.759130 109.605339 1005.027161
[L_mouthFront]
32 551.629089 934.514771 339.150421 0.000081 2.804060 79.119301 1136.941284
33 551.629089 934.514771 339.150421 0.000081 2.804060 79.119301 1136.941284
34 551.629089 934.514771 339.150421 0.000081 2.804060 79.119301 1136.941284
[mouthGun]
32 55.332661 1627.420898 0.000000 0.000023 0.000009 -11.038128 1628.361328
33 55.332661 1627.420898 0.000000 0.000023 0.000009 -11.038128 1628.361328
34 55.332661 1627.420898 0.000000 0.000023 0.000009 -11.038128 1628.361328
[R_Mouth01]
32 554.442383 7.659197 -838.223938 29.795891 -23.759109 109.605331 1005.029541
33 554.442383 7.659197 -838.223938 29.795891 -23.759109 109.605331 1005.029541
34 554.442383 7.659197 -838.223938 29.795891 -23.759109 109.605331 1005.029541
[R_mouthFront]
32 551.629089 934.514282 -339.151367 0.000029 -2.803930 79.119133 1136.941162
33 551.629089 934.514282 -339.151367 0.000029 -2.803930 79.119133 1136.941162
34 551.629089 934.514282 -339.151367 0.000029 -2.803930 79.119133 1136.941162
[TopMouth]
32 461.269867 -56.106091 -0.008583 -0.000059 -0.000268 92.025169 464.669525
33 461.269867 -56.106091 -0.008583 -0.000059 -0.000268 92.025169 464.669525
34 461.269867 -56.106091 -0.008583 -0.000059 -0.000268 92.025169 464.669525
[weapon_bone]
32 -987.239868 1448.372803 0.001431 0.000000 89.965736 -31.038221 1752.833740
33 -987.239868 1448.372803 0.001431 0.000000 89.965736 -31.038221 1752.833740
34 -987.239868 1448.372803 0.001431 0.000000 89.965736 -31.038221 1752.833740
